<svg id="visual" viewBox="0 0 900 600" width="900" height="600" xmlns="http://www.w3.org/2000/svg" xmlns:xlink="http://www.w3.org/1999/xlink" version="1.1"><rect x="0" y="0" width="900" height="600" fill="#1a1a1a"></rect><defs><linearGradient id="grad1_0" x1="33.3%" y1="0%" x2="100%" y2="100%"><stop offset="20%" stop-color="#000000" stop-opacity="1"></stop><stop offset="80%" stop-color="#000000" stop-opacity="1"></stop></linearGradient></defs><defs><linearGradient id="grad1_1" x1="33.3%" y1="0%" x2="100%" y2="100%"><stop offset="20%" stop-color="#000000" stop-opacity="1"></stop><stop offset="80%" stop-color="#070707" stop-opacity="1"></stop></linearGradient></defs><defs><linearGradient id="grad1_2" x1="33.3%" y1="0%" x2="100%" y2="100%"><stop offset="20%" stop-color="#0d0d0d" stop-opacity="1"></stop><stop offset="80%" stop-color="#070707" stop-opacity="1"></stop></linearGradient></defs><defs><linearGradient id="grad1_3" x1="33.3%" y1="0%" x2="100%" y2="100%"><stop offset="20%" stop-color="#0d0d0d" stop-opacity="1"></stop><stop offset="80%" stop-color="#121212" stop-opacity="1"></stop></linearGradient></defs><defs><linearGradient id="grad1_4" x1="33.3%" y1="0%" x2="100%" y2="100%"><stop offset="20%" stop-color="#161616" stop-opacity="1"></stop><stop offset="80%" stop-color="#121212" stop-opacity="1"></stop></linearGradient></defs><defs><linearGradient id="grad1_5" x1="33.3%" y1="0%" x2="100%" y2="100%"><stop offset="20%" stop-color="#161616" stop-opacity="1"></stop><stop offset="80%" stop-color="#1a1a1a" stop-opacity="1"></stop></linearGradient></defs><defs><linearGradient id="grad2_0" x1="0%" y1="0%" x2="66.7%" y2="100%"><stop offset="20%" stop-color="#000000" stop-opacity="1"></stop><stop offset="80%" stop-color="#000000" stop-opacity="1"></stop></linearGradient></defs><defs><linearGradient id="grad2_1" x1="0%" y1="0%" x2="66.7%" y2="100%"><stop offset="20%" stop-color="#070707" stop-opacity="1"></stop><stop offset="80%" stop-color="#000000" stop-opacity="1"></stop></linearGradient></defs><defs><linearGradient id="grad2_2" x1="0%" y1="0%" x2="66.7%" y2="100%"><stop offset="20%" stop-color="#070707" stop-opacity="1"></stop><stop offset="80%" stop-color="#0d0d0d" stop-opacity="1"></stop></linearGradient></defs><defs><linearGradient id="grad2_3" x1="0%" y1="0%" x2="66.7%" y2="100%"><stop offset="20%" stop-color="#121212" stop-opacity="1"></stop><stop offset="80%" stop-color="#0d0d0d" stop-opacity="1"></stop></linearGradient></defs><defs><linearGradient id="grad2_4" x1="0%" y1="0%" x2="66.7%" y2="100%"><stop offset="20%" stop-color="#121212" stop-opacity="1"></stop><stop offset="80%" stop-color="#161616" stop-opacity="1"></stop></linearGradient></defs><defs><linearGradient id="grad2_5" x1="0%" y1="0%" x2="66.7%" y2="100%"><stop offset="20%" stop-color="#1a1a1a" stop-opacity="1"></stop><stop offset="80%" stop-color="#161616" stop-opacity="1"></stop></linearGradient></defs><g transform="translate(900, 0)"><path d="M0 486.7C-61.2 474.4 -122.5 462 -182.5 440.7C-242.6 419.4 -301.5 389.1 -344.2 344.2C-386.8 299.3 -413.2 239.7 -434.2 179.9C-455.3 120.1 -471 60 -486.7 0L0 0Z" fill="#181818"></path><path d="M0 405.6C-51 395.3 -102.1 385 -152.1 367.2C-202.2 349.5 -251.3 324.3 -286.8 286.8C-322.4 249.4 -344.3 199.7 -361.9 149.9C-379.4 100 -392.5 50 -405.6 0L0 0Z" fill="#141414"></path><path d="M0 324.5C-40.8 316.3 -81.6 308 -121.7 293.8C-161.7 279.6 -201 259.4 -229.5 229.5C-257.9 199.5 -275.5 159.8 -289.5 119.9C-303.5 80 -314 40 -324.5 0L0 0Z" fill="#101010"></path><path d="M0 243.4C-30.6 237.2 -61.2 231 -91.3 220.3C-121.3 209.7 -150.8 194.6 -172.1 172.1C-193.4 149.6 -206.6 119.8 -217.1 89.9C-227.6 60 -235.5 30 -243.4 0L0 0Z" fill="#0a0a0a"></path><path d="M0 162.2C-20.4 158.1 -40.8 154 -60.8 146.9C-80.9 139.8 -100.5 129.7 -114.7 114.7C-128.9 99.8 -137.7 79.9 -144.7 60C-151.8 40 -157 20 -162.2 0L0 0Z" fill="#030303"></path><path d="M0 81.1C-10.2 79.1 -20.4 77 -30.4 73.4C-40.4 69.9 -50.3 64.9 -57.4 57.4C-64.5 49.9 -68.9 39.9 -72.4 30C-75.9 20 -78.5 10 -81.1 0L0 0Z" fill="#000000"></path></g><g transform="translate(0, 600)"><path d="M0 -486.7C67.2 -483.3 134.4 -479.9 186.3 -449.7C238.2 -419.5 274.8 -362.6 314.7 -314.7C354.5 -266.7 397.6 -227.7 426.8 -176.8C456.1 -125.9 471.4 -62.9 486.7 0L0 0Z" fill="#181818"></path><path d="M0 -405.6C56 -402.8 112 -399.9 155.2 -374.7C198.5 -349.6 229 -302.2 262.2 -262.2C295.4 -222.3 331.3 -189.8 355.7 -147.3C380 -104.9 392.8 -52.4 405.6 0L0 0Z" fill="#141414"></path><path d="M0 -324.5C44.8 -322.2 89.6 -319.9 124.2 -299.8C158.8 -279.7 183.2 -241.7 209.8 -209.8C236.3 -177.8 265.1 -151.8 284.6 -117.9C304 -83.9 314.3 -42 324.5 0L0 0Z" fill="#101010"></path><path d="M0 -243.4C33.6 -241.7 67.2 -239.9 93.1 -224.8C119.1 -209.8 137.4 -181.3 157.3 -157.3C177.3 -133.4 198.8 -113.9 213.4 -88.4C228 -62.9 235.7 -31.5 243.4 0L0 0Z" fill="#0a0a0a"></path><path d="M0 -162.2C22.4 -161.1 44.8 -160 62.1 -149.9C79.4 -139.8 91.6 -120.9 104.9 -104.9C118.2 -88.9 132.5 -75.9 142.3 -58.9C152 -42 157.1 -21 162.2 0L0 0Z" fill="#030303"></path><path d="M0 -81.1C11.2 -80.6 22.4 -80 31 -74.9C39.7 -69.9 45.8 -60.4 52.4 -52.4C59.1 -44.5 66.3 -38 71.1 -29.5C76 -21 78.6 -10.5 81.1 0L0 0Z" fill="#000000"></path></g></svg>