<svg fill="#e5e5e5" xmlns="http://www.w3.org/2000/svg"  viewBox="0 0 24 24" width="48px" height="48px"><path d="M 5.5 2 C 4.121094 2 3 3.121094 3 4.5 C 3 5.878906 4.121094 7 5.5 7 C 6.878906 7 8 5.878906 8 4.5 C 8 3.121094 6.878906 2 5.5 2 Z M 12.5 2 C 11.121094 2 10 3.121094 10 4.5 C 10 5.878906 11.121094 7 12.5 7 C 13.878906 7 15 5.878906 15 4.5 C 15 3.121094 13.878906 2 12.5 2 Z M 19.5 2 C 18.121094 2 17 3.121094 17 4.5 C 17 5.878906 18.121094 7 19.5 7 C 20.878906 7 22 5.878906 22 4.5 C 22 3.121094 20.878906 2 19.5 2 Z M 12.5 9 C 11.121094 9 10 10.121094 10 11.5 C 10 12.878906 11.121094 14 12.5 14 C 13.878906 14 15 12.878906 15 11.5 C 15 10.121094 13.878906 9 12.5 9 Z M 19.5 9 C 18.121094 9 17 10.121094 17 11.5 C 17 12.878906 18.121094 14 19.5 14 C 20.878906 14 22 12.878906 22 11.5 C 22 10.121094 20.878906 9 19.5 9 Z M 19.5 16 C 18.121094 16 17 17.121094 17 18.5 C 17 19.878906 18.121094 21 19.5 21 C 20.878906 21 22 19.878906 22 18.5 C 22 17.121094 20.878906 16 19.5 16 Z"/></svg>